<?xml version="1.0" encoding="UTF-8" standalone="no"?>
<!DOCTYPE svg PUBLIC "-//W3C//DTD SVG 1.1//EN"
 "http://www.w3.org/Graphics/SVG/1.1/DTD/svg11.dtd">
<!-- Generated by graphviz version 2.43.0 (0)
 -->
<!-- Title: G Pages: 1 -->
<svg width="855pt" height="426pt"
 viewBox="0.00 0.00 855.17 426.03" xmlns="http://www.w3.org/2000/svg" xmlns:xlink="http://www.w3.org/1999/xlink">
<g id="graph0" class="graph" transform="scale(1 1) rotate(0) translate(4 422.03)">
<title>G</title>
<polygon fill="white" stroke="transparent" points="-4,4 -4,-422.03 851.17,-422.03 851.17,4 -4,4"/>
<!-- start -->
<g id="node1" class="node">
<title>start</title>
<ellipse fill="black" stroke="black" cx="2.88" cy="-228.03" rx="2.88" ry="2.88"/>
</g>
<!-- T0 -->
<g id="node2" class="node">
<title>T0</title>
<ellipse fill="none" stroke="black" cx="82.12" cy="-228.03" rx="35.21" ry="35.21"/>
<text text-anchor="middle" x="82.12" y="-231.63" font-family="Helvetica,sans-Serif" font-size="13.00">T0</text>
<text text-anchor="middle" x="82.12" y="-217.63" font-family="Helvetica,sans-Serif" font-size="13.00">{p0}</text>
</g>
<!-- start&#45;&gt;T0 -->
<g id="edge1" class="edge">
<title>start&#45;&gt;T0</title>
<path fill="none" stroke="black" d="M5.79,-228.03C10.42,-228.03 22.85,-228.03 36.31,-228.03"/>
<polygon fill="black" stroke="black" points="36.69,-231.53 46.69,-228.03 36.69,-224.53 36.69,-231.53"/>
</g>
<!-- T1 -->
<g id="node3" class="node">
<title>T1</title>
<ellipse fill="none" stroke="black" cx="220.5" cy="-315.03" rx="53.07" ry="53.07"/>
<text text-anchor="middle" x="220.5" y="-318.63" font-family="Helvetica,sans-Serif" font-size="13.00">T1</text>
<text text-anchor="middle" x="220.5" y="-304.63" font-family="Helvetica,sans-Serif" font-size="13.00">{p1, p4}</text>
</g>
<!-- T0&#45;&gt;T1 -->
<g id="edge2" class="edge">
<title>T0&#45;&gt;T1</title>
<path fill="none" stroke="black" d="M112.37,-246.7C128.19,-256.78 148.2,-269.55 166.63,-281.31"/>
<polygon fill="black" stroke="black" points="164.94,-284.38 175.25,-286.8 168.7,-278.48 164.94,-284.38"/>
<text text-anchor="middle" x="142.47" y="-271.23" font-family="Helvetica,sans-Serif" font-size="11.00">M</text>
</g>
<!-- T2 -->
<g id="node4" class="node">
<title>T2</title>
<ellipse fill="none" stroke="black" cx="220.5" cy="-53.03" rx="53.07" ry="53.07"/>
<text text-anchor="middle" x="220.5" y="-56.63" font-family="Helvetica,sans-Serif" font-size="13.00">T2</text>
<text text-anchor="middle" x="220.5" y="-42.63" font-family="Helvetica,sans-Serif" font-size="13.00">{p2, p4}</text>
</g>
<!-- T0&#45;&gt;T2 -->
<g id="edge3" class="edge">
<title>T0&#45;&gt;T2</title>
<path fill="none" stroke="black" d="M104.1,-200.33C121.08,-178.02 145.65,-145.88 167.47,-118.03 171.6,-112.76 175.95,-107.26 180.29,-101.8"/>
<polygon fill="black" stroke="black" points="183.13,-103.85 186.62,-93.84 177.65,-99.49 183.13,-103.85"/>
<text text-anchor="middle" x="142.47" y="-157.23" font-family="Helvetica,sans-Serif" font-size="11.00">S</text>
</g>
<!-- T3 -->
<g id="node5" class="node">
<title>T3</title>
<ellipse fill="none" stroke="black" cx="220.5" cy="-184.03" rx="53.07" ry="53.07"/>
<text text-anchor="middle" x="220.5" y="-187.63" font-family="Helvetica,sans-Serif" font-size="13.00">T3</text>
<text text-anchor="middle" x="220.5" y="-173.63" font-family="Helvetica,sans-Serif" font-size="13.00">{p3, p4}</text>
</g>
<!-- T0&#45;&gt;T3 -->
<g id="edge4" class="edge">
<title>T0&#45;&gt;T3</title>
<path fill="none" stroke="black" d="M116.13,-217.38C129.32,-213.13 144.94,-208.09 159.98,-203.24"/>
<polygon fill="black" stroke="black" points="161.3,-206.49 169.75,-200.09 159.15,-199.82 161.3,-206.49"/>
<text text-anchor="middle" x="142.47" y="-212.23" font-family="Helvetica,sans-Serif" font-size="11.00">C</text>
</g>
<!-- ∅ -->
<g id="node6" class="node">
<title>∅</title>
<ellipse fill="none" stroke="#666666" stroke-dasharray="5,2" cx="815.17" cy="-239.03" rx="21.5" ry="21.5"/>
<text text-anchor="middle" x="815.17" y="-235.63" font-family="Helvetica,sans-Serif" font-size="13.00" fill="#4d4d4d">∅</text>
</g>
<!-- T0&#45;&gt;∅ -->
<g id="edge5" class="edge">
<title>T0&#45;&gt;∅</title>
<path fill="none" stroke="#999999" d="M92.28,-261.93C108.54,-313.58 147.68,-406.03 219.5,-406.03 219.5,-406.03 219.5,-406.03 651.31,-406.03 716.29,-406.03 731.14,-375.15 773.67,-326.03 788.02,-309.46 798.32,-286.93 804.94,-268.95"/>
<polygon fill="#999999" stroke="#999999" points="808.25,-270.09 808.25,-259.49 801.64,-267.78 808.25,-270.09"/>
<text text-anchor="middle" x="431.25" y="-409.23" font-family="Helvetica,sans-Serif" font-size="11.00" fill="#666666">0&#45;9</text>
</g>
<!-- T1&#45;&gt;∅ -->
<g id="edge6" class="edge">
<title>T1&#45;&gt;∅</title>
<path fill="none" stroke="#999999" d="M271.43,-330.65C298.99,-337.94 334.02,-345.03 365.89,-345.03 365.89,-345.03 365.89,-345.03 651.31,-345.03 710.77,-345.03 765.55,-294.79 793.91,-263.48"/>
<polygon fill="#999999" stroke="#999999" points="796.88,-265.41 800.87,-255.6 791.63,-260.78 796.88,-265.41"/>
<text text-anchor="middle" x="495.6" y="-348.23" font-family="Helvetica,sans-Serif" font-size="11.00" fill="#666666">M, S, C</text>
</g>
<!-- T4 -->
<g id="node7" class="node">
<title>T4</title>
<ellipse fill="none" stroke="black" cx="366.89" cy="-175.03" rx="35.21" ry="35.21"/>
<text text-anchor="middle" x="366.89" y="-178.63" font-family="Helvetica,sans-Serif" font-size="13.00">T4</text>
<text text-anchor="middle" x="366.89" y="-164.63" font-family="Helvetica,sans-Serif" font-size="13.00">{p5}</text>
</g>
<!-- T1&#45;&gt;T4 -->
<g id="edge7" class="edge">
<title>T1&#45;&gt;T4</title>
<path fill="none" stroke="black" d="M259.06,-278.62C282.19,-256.2 311.52,-227.75 333.6,-206.35"/>
<polygon fill="black" stroke="black" points="336.04,-208.85 340.79,-199.38 331.17,-203.83 336.04,-208.85"/>
<text text-anchor="middle" x="302.54" y="-248.23" font-family="Helvetica,sans-Serif" font-size="11.00">0&#45;9</text>
</g>
<!-- T2&#45;&gt;∅ -->
<g id="edge8" class="edge">
<title>T2&#45;&gt;∅</title>
<path fill="none" stroke="#999999" d="M271.06,-36.99C298.67,-29.42 333.84,-22.03 365.89,-22.03 365.89,-22.03 365.89,-22.03 651.31,-22.03 716.04,-22.03 734.94,-49.17 773.67,-101.03 797.09,-132.39 807.01,-177.09 811.19,-207.03"/>
<polygon fill="#999999" stroke="#999999" points="807.76,-207.85 812.48,-217.34 814.71,-206.98 807.76,-207.85"/>
<text text-anchor="middle" x="495.6" y="-25.23" font-family="Helvetica,sans-Serif" font-size="11.00" fill="#666666">M, S, C</text>
</g>
<!-- T2&#45;&gt;T4 -->
<g id="edge9" class="edge">
<title>T2&#45;&gt;T4</title>
<path fill="none" stroke="black" d="M261.72,-87.02C283.63,-105.52 310.45,-128.18 331.39,-145.88"/>
<polygon fill="black" stroke="black" points="329.21,-148.62 339.1,-152.4 333.72,-143.27 329.21,-148.62"/>
<text text-anchor="middle" x="302.54" y="-131.23" font-family="Helvetica,sans-Serif" font-size="11.00">0&#45;9</text>
</g>
<!-- T3&#45;&gt;∅ -->
<g id="edge10" class="edge">
<title>T3&#45;&gt;∅</title>
<path fill="none" stroke="#999999" d="M269.7,-204.41C288.64,-211.54 310.78,-218.81 331.54,-223.03 496.53,-256.6 541.38,-240.92 709.67,-246.03 738.1,-246.9 745.33,-248.46 773.67,-246.03 777.01,-245.75 780.49,-245.33 783.94,-244.84"/>
<polygon fill="#999999" stroke="#999999" points="784.75,-248.25 794.07,-243.21 783.64,-241.34 784.75,-248.25"/>
<text text-anchor="middle" x="495.6" y="-248.23" font-family="Helvetica,sans-Serif" font-size="11.00" fill="#666666">M, S, C</text>
</g>
<!-- T3&#45;&gt;T4 -->
<g id="edge11" class="edge">
<title>T3&#45;&gt;T4</title>
<path fill="none" stroke="black" d="M273.63,-180.78C289.25,-179.81 306.23,-178.75 321.32,-177.81"/>
<polygon fill="black" stroke="black" points="321.66,-181.3 331.42,-177.18 321.22,-174.31 321.66,-181.3"/>
<text text-anchor="middle" x="302.54" y="-182.23" font-family="Helvetica,sans-Serif" font-size="11.00">0&#45;9</text>
</g>
<!-- ∅&#45;&gt;∅ -->
<g id="edge12" class="edge">
<title>∅&#45;&gt;∅</title>
<path fill="none" stroke="black" d="M803.41,-257.17C799.02,-271.21 802.93,-285.53 815.17,-285.53 824.44,-285.53 828.94,-277.31 828.66,-267.21"/>
<polygon fill="black" stroke="black" points="832.07,-266.43 826.93,-257.17 825.17,-267.62 832.07,-266.43"/>
<text text-anchor="middle" x="815.17" y="-288.73" font-family="Helvetica,sans-Serif" font-size="11.00">M, S, C, 0&#45;9</text>
</g>
<!-- T4&#45;&gt;∅ -->
<g id="edge13" class="edge">
<title>T4&#45;&gt;∅</title>
<path fill="none" stroke="#999999" d="M397.4,-156.67C454.86,-123.37 585.29,-59.83 689.67,-98.03 743.01,-117.56 781.35,-175.65 800.44,-210.88"/>
<polygon fill="#999999" stroke="#999999" points="797.34,-212.52 805.09,-219.74 803.54,-209.26 797.34,-212.52"/>
<text text-anchor="middle" x="570.96" y="-96.23" font-family="Helvetica,sans-Serif" font-size="11.00" fill="#666666">M, S, C</text>
</g>
<!-- T5 -->
<g id="node8" class="node">
<title>T5</title>
<ellipse fill="none" stroke="black" cx="495.6" cy="-175.03" rx="35.21" ry="35.21"/>
<text text-anchor="middle" x="495.6" y="-178.63" font-family="Helvetica,sans-Serif" font-size="13.00">T5</text>
<text text-anchor="middle" x="495.6" y="-164.63" font-family="Helvetica,sans-Serif" font-size="13.00">{p6}</text>
</g>
<!-- T4&#45;&gt;T5 -->
<g id="edge14" class="edge">
<title>T4&#45;&gt;T5</title>
<path fill="none" stroke="black" d="M402.52,-175.03C417.04,-175.03 434.13,-175.03 449.61,-175.03"/>
<polygon fill="black" stroke="black" points="450.02,-178.53 460.02,-175.03 450.02,-171.53 450.02,-178.53"/>
<text text-anchor="middle" x="431.25" y="-178.23" font-family="Helvetica,sans-Serif" font-size="11.00">0&#45;9</text>
</g>
<!-- T5&#45;&gt;∅ -->
<g id="edge15" class="edge">
<title>T5&#45;&gt;∅</title>
<path fill="none" stroke="#999999" d="M530.06,-183.23C552.83,-188.73 583.66,-196.05 610.96,-202.03 654.68,-211.62 665.63,-213.99 709.67,-222.03 734.57,-226.58 762.93,-231.16 783.81,-234.41"/>
<polygon fill="#999999" stroke="#999999" points="783.29,-237.87 793.7,-235.94 784.36,-230.95 783.29,-237.87"/>
<text text-anchor="middle" x="650.31" y="-221.23" font-family="Helvetica,sans-Serif" font-size="11.00" fill="#666666">M, S, C</text>
</g>
<!-- T6 -->
<g id="node9" class="node">
<title>T6</title>
<ellipse fill="none" stroke="black" cx="650.31" cy="-150.03" rx="35.23" ry="35.23"/>
<ellipse fill="none" stroke="black" cx="650.31" cy="-150.03" rx="39.21" ry="39.21"/>
<text text-anchor="middle" x="650.31" y="-153.63" font-family="Helvetica,sans-Serif" font-size="13.00">T6</text>
<text text-anchor="middle" x="650.31" y="-139.63" font-family="Helvetica,sans-Serif" font-size="13.00">{p7}</text>
</g>
<!-- T5&#45;&gt;T6 -->
<g id="edge16" class="edge">
<title>T5&#45;&gt;T6</title>
<path fill="none" stroke="black" d="M530.87,-169.42C551.71,-166.01 578.63,-161.61 601.53,-157.86"/>
<polygon fill="black" stroke="black" points="602.1,-161.31 611.41,-156.24 600.97,-154.4 602.1,-161.31"/>
<text text-anchor="middle" x="570.96" y="-168.23" font-family="Helvetica,sans-Serif" font-size="11.00">0&#45;9</text>
</g>
<!-- T6&#45;&gt;∅ -->
<g id="edge17" class="edge">
<title>T6&#45;&gt;∅</title>
<path fill="none" stroke="#999999" d="M687.15,-164.64C712.1,-175.37 745.78,-191.01 773.67,-208.03 779.22,-211.42 784.93,-215.42 790.24,-219.4"/>
<polygon fill="#999999" stroke="#999999" points="788.13,-222.19 798.18,-225.55 792.41,-216.66 788.13,-222.19"/>
<text text-anchor="middle" x="741.67" y="-211.23" font-family="Helvetica,sans-Serif" font-size="11.00" fill="#666666">M, S, C, 0&#45;9</text>
</g>
</g>
</svg>
